<?xml version="1.0" encoding="UTF-8"?>
<svg id="_图层_2" data-name="图层 2" xmlns="http://www.w3.org/2000/svg" viewBox="0 0 16.67 17.88">
  <defs>
    <style>
      .cls-1 {
        fill: #b4b4b4;
      }
    </style>
  </defs>
  <g id="_图层_1-2" data-name="图层 1">
    <path class="cls-1" d="M16.02,13.92c-.42-.99-1.02-1.88-1.79-2.65-.77-.76-1.66-1.36-2.65-1.78-.11-.05-.22-.09-.34-.13,.26-.18,.5-.38,.72-.6,.97-.97,1.5-2.26,1.5-3.63s-.53-2.66-1.5-3.63c-.97-.97-2.26-1.5-3.63-1.5s-2.66,.53-3.63,1.5c-.97,.97-1.5,2.26-1.5,3.63s.53,2.66,1.5,3.63c.22,.22,.46,.42,.72,.6-.11,.04-.23,.09-.34,.13-.99,.42-1.88,1.02-2.65,1.78-.77,.76-1.37,1.66-1.79,2.65-.43,1.03-.66,2.12-.66,3.24,0,.39,.32,.71,.71,.71s.71-.32,.71-.71c0-1.85,.72-3.58,2.03-4.89,1.28-1.28,2.98-2,4.79-2.02,.03,0,.07,0,.1,0s.07,0,.1,0c1.81,.03,3.51,.74,4.79,2.02,1.31,1.31,2.03,3.04,2.03,4.89,0,.39,.32,.71,.71,.71s.71-.32,.71-.71c0-1.12-.22-2.21-.66-3.24ZM4.62,5.13c0-2.05,1.67-3.71,3.72-3.71s3.72,1.66,3.72,3.71-1.61,3.65-3.6,3.71c-.04,0-.07,0-.11,0s-.07,0-.11,0c-2-.06-3.6-1.7-3.6-3.71Z"/>
  </g>
</svg>