<?xml version="1.0" encoding="UTF-8"?>
<svg id="_图层_2" data-name="图层 2" xmlns="http://www.w3.org/2000/svg" viewBox="0 0 23 16.65">
  <defs>
    <style>
      .cls-1 {
        fill: #b4b4b4;
      }
    </style>
  </defs>
  <g id="_图层_1-2" data-name="图层 1">
    <path class="cls-1" d="M3.51,16.65c-.36,0-.72-.06-1.07-.18-.64-.22-1.16-.73-1.56-1.53-.32-.64-.56-1.46-.71-2.44-.27-1.76-.23-3.95,.11-5.99,.29-1.78,.68-3.04,1.23-3.97C2.12,1.53,2.89,.96,3.57,.54,4.55-.06,6.05-.08,6.75,.09c.33,.08,.62,.16,.87,.22,1.15,.3,1.84,.49,3.98,.49,.38,0,.68,.31,.68,.68s-.31,.68-.68,.68c-2.32,0-3.16-.22-4.33-.53-.26-.07-.53-.14-.85-.22-.48-.12-1.58-.06-2.14,.29-1.19,.73-2.08,1.52-2.65,5.02-.31,1.91-.35,3.94-.11,5.57,.24,1.59,.75,2.67,1.36,2.88,.78,.27,1.83,.04,2.29-1.1,.95-2.34,1.85-3.52,2.85-3.72,1.18-.23,2.39-.35,3.57-.35,.38,0,.68,.31,.68,.68s-.31,.68-.68,.68c-1.1,0-2.21,.11-3.31,.33-.08,.02-.77,.22-1.85,2.89-.34,.83-.94,1.47-1.7,1.8-.39,.17-.82,.26-1.25,.26Z"/>
    <path class="cls-1" d="M19.49,16.65c-.43,0-.85-.09-1.25-.26-.76-.33-1.36-.97-1.7-1.8-1.08-2.67-1.77-2.87-1.85-2.89-1.1-.22-2.21-.33-3.31-.33-.38,0-.68-.31-.68-.68s.31-.68,.68-.68c1.19,0,2.39,.12,3.57,.35,1,.2,1.91,1.38,2.85,3.72,.46,1.14,1.51,1.37,2.29,1.1,.61-.21,1.12-1.29,1.36-2.88,.25-1.63,.21-3.66-.11-5.57-.57-3.5-1.46-4.29-2.65-5.02-.57-.35-1.66-.4-2.14-.29-.31,.08-.58,.15-.85,.22-1.17,.31-2.01,.53-4.33,.53-.38,0-.68-.31-.68-.68s.31-.68,.68-.68c2.14,0,2.83-.18,3.98-.49,.26-.07,.55-.14,.87-.22,.71-.17,2.21-.15,3.18,.45,.68,.42,1.46,.98,2.06,2,.55,.92,.94,2.18,1.23,3.97,.33,2.05,.37,4.23,.11,5.99-.15,.98-.39,1.81-.71,2.44-.4,.79-.92,1.3-1.56,1.53-.35,.12-.71,.18-1.07,.18ZM6.36,9.23c-.49,0-.9-.4-.9-.9V3.99c0-.49,.4-.9,.9-.9s.9,.4,.9,.9v4.35c0,.49-.4,.9-.9,.9Z"/>
    <path class="cls-1" d="M3.33,6.16c0-.5,.41-.91,.91-.91h4.23c.5,0,.91,.41,.91,.91s-.41,.91-.91,.91H4.24c-.5,0-.91-.41-.91-.91Z"/>
    <path class="cls-1" d="M15.93,8.26c0,.25,.1,.48,.27,.66,.17,.17,.41,.27,.65,.27s.48-.1,.65-.27c.17-.17,.27-.41,.27-.66s-.1-.48-.27-.66c-.17-.17-.41-.27-.65-.27s-.48,.1-.65,.27c-.17,.17-.27,.41-.27,.66Z"/>
    <path class="cls-1" d="M13.99,6.16c0,.12,.02,.24,.07,.36,.05,.11,.11,.22,.2,.3,.09,.09,.19,.15,.3,.2,.11,.05,.23,.07,.35,.07s.24-.02,.35-.07c.11-.05,.21-.12,.3-.2,.09-.09,.15-.19,.2-.3,.05-.11,.07-.23,.07-.36s-.02-.24-.07-.36c-.05-.11-.11-.22-.2-.3-.09-.09-.19-.15-.3-.2-.11-.05-.23-.07-.35-.07s-.24,.02-.35,.07c-.11,.05-.21,.12-.3,.2-.09,.09-.15,.19-.2,.3-.05,.11-.07,.23-.07,.36Z"/>
    <path class="cls-1" d="M18.02,6.16c0,.25,.1,.48,.27,.66,.17,.17,.41,.27,.65,.27s.48-.1,.65-.27c.17-.17,.27-.41,.27-.66s-.1-.48-.27-.66-.41-.27-.65-.27-.48,.1-.65,.27-.27,.41-.27,.66Z"/>
  </g>
</svg>